<svg id="Capa_2" data-name="Capa 2" xmlns="http://www.w3.org/2000/svg" viewBox="0 0 733.39 231.66"><defs><style>.cls-1{fill:#F2F8F8;}</style></defs><circle class="cls-1" cx="132.3" cy="34.09" r="19.39"/><path class="cls-1" d="M172.8,611.87h37.66V508.43s4-52.39,53.68-54.48c0,0-61.83-41.9-88,35.7a65.28,65.28,0,0,0-3.35,20.84Z" transform="translate(-172.8 -386.45)"/><path class="cls-1" d="M276.84,460.86S324.49,458,324.73,522c.09,22.47,0,89.87,0,89.87H286.48s1.42-89.19,0-118.87C285.71,476.93,276.84,460.86,276.84,460.86Z" transform="translate(-172.8 -386.45)"/><path class="cls-1" d="M356.07,459.14l77.47,152.73,20.89-39.48a10.94,10.94,0,0,0,2.25-11.89L416.82,476s-3.53-9.85,2.57-16.82Z" transform="translate(-172.8 -386.45)"/><path class="cls-1" d="M469.86,459.14s24.43,13.61,15.1,55.07l31.83-55.07Z" transform="translate(-172.8 -386.45)"/><path class="cls-1" d="M601.43,458.12s-10.29,12.17-10.72,25.45-4.28,84.86,8.58,100.72,29.14,32.57,66.85,19.28c0,0-27.85,21.32-71.57,8.3s-51.86-51.16-51.86-51.16-11.14-39.85,8.58-68.57S593.3,458.12,601.43,458.12Z" transform="translate(-172.8 -386.45)"/><path class="cls-1" d="M640.86,457.11s28.71,37.75-9.43,64.89h48s12.43,2.71,7.28-22.57S659.71,458.93,640.86,457.11Z" transform="translate(-172.8 -386.45)"/><path class="cls-1" d="M728.18,612.79h63.11s-6.86-4.4-8.15-15V386.45l-55.82,10.12s6.43,3,8.36,13.5v183S737.07,604.64,728.18,612.79Z" transform="translate(-172.8 -386.45)"/><path class="cls-1" d="M843.57,459.57h50.68l-56.46,44.14s-8.58,5-2.47,13.93l53,81.43s8,11.57,17.84,16.07c0,0-29.58,11.09-59-9.64,0,0-7.5-5.57-12-12.86l-28.71-46.5a9.46,9.46,0,0,1,0-11.78c4.71-6.22,31.71-34.74,31.71-34.74a64.46,64.46,0,0,0,10.72-20.12C852.36,468.14,843.57,459.57,843.57,459.57Z" transform="translate(-172.8 -386.45)"/></svg>